<?xml version="1.0" encoding="UTF-8" standalone="no"?>
<!-- Created with Inkscape (http://www.inkscape.org/) -->

<svg
   xmlns:dc="http://purl.org/dc/elements/1.1/"
   xmlns:cc="http://creativecommons.org/ns#"
   xmlns:rdf="http://www.w3.org/1999/02/22-rdf-syntax-ns#"
   xmlns:svg="http://www.w3.org/2000/svg"
   xmlns="http://www.w3.org/2000/svg"
   xmlns:sodipodi="http://sodipodi.sourceforge.net/DTD/sodipodi-0.dtd"
   xmlns:inkscape="http://www.inkscape.org/namespaces/inkscape"
   width="1479.9331mm"
   height="725.75696mm"
   viewBox="0 0 1479.9331 725.75697"
   version="1.1"
   id="svg860"
   inkscape:version="0.92.3 (2405546, 2018-03-11)"
   sodipodi:docname="P.svg">
  <defs
     id="defs854">
    <inkscape:path-effect
       effect="skeletal"
       id="path-effect870"
       is_visible="true"
       pattern="M 0,0 H 1"
       copytype="single_stretched"
       prop_scale="5"
       scale_y_rel="false"
       spacing="0"
       normal_offset="0"
       tang_offset="0"
       prop_units="false"
       vertical_pattern="false"
       fuse_tolerance="0" />
    <inkscape:path-effect
       effect="ellipse_5pts"
       id="path-effect868"
       is_visible="true" />
    <inkscape:path-effect
       effect="fill_between_strokes"
       id="path-effect866"
       is_visible="true"
       linkedpath=""
       secondpath=""
       reversesecond="false" />
    <inkscape:path-effect
       effect="simplify"
       id="path-effect23"
       is_visible="true"
       steps="1"
       threshold="0.00416667"
       smooth_angles="360"
       helper_size="0"
       simplify_individual_paths="false"
       simplify_just_coalesce="false"
       simplifyindividualpaths="false"
       simplifyJustCoalesce="false" />
    <inkscape:path-effect
       effect="simplify"
       id="path-effect19"
       is_visible="true"
       steps="1"
       threshold="0.00416667"
       smooth_angles="360"
       helper_size="0"
       simplify_individual_paths="false"
       simplify_just_coalesce="false"
       simplifyindividualpaths="false"
       simplifyJustCoalesce="false" />
    <inkscape:path-effect
       effect="simplify"
       id="path-effect15"
       is_visible="true"
       steps="1"
       threshold="0.00416667"
       smooth_angles="360"
       helper_size="0"
       simplify_individual_paths="false"
       simplify_just_coalesce="false"
       simplifyindividualpaths="false"
       simplifyJustCoalesce="false" />
  </defs>
  <sodipodi:namedview
     id="base"
     pagecolor="#ffffff"
     bordercolor="#666666"
     borderopacity="1.0"
     inkscape:pageopacity="0.0"
     inkscape:pageshadow="2"
     inkscape:zoom="0.10250136"
     inkscape:cx="3912.816"
     inkscape:cy="1283.1666"
     inkscape:document-units="mm"
     inkscape:current-layer="layer2"
     showgrid="false"
     inkscape:pagecheckerboard="true"
     fit-margin-top="0"
     fit-margin-left="0"
     fit-margin-right="0"
     fit-margin-bottom="0"
     inkscape:window-width="1366"
     inkscape:window-height="740"
     inkscape:window-x="0"
     inkscape:window-y="0"
     inkscape:window-maximized="1" />
  <metadata
     id="metadata857">
    <rdf:RDF>
      <cc:Work
         rdf:about="">
        <dc:format>image/svg+xml</dc:format>
        <dc:type
           rdf:resource="http://purl.org/dc/dcmitype/StillImage" />
        <dc:title></dc:title>
      </cc:Work>
    </rdf:RDF>
  </metadata>
  <g
     inkscape:label="Layer 1"
     inkscape:groupmode="layer"
     id="layer1"
     transform="translate(451.32627,301.8255)" />
  <g
     inkscape:groupmode="layer"
     id="layer2"
     inkscape:label="Layer 2"
     transform="translate(59.035567,28.25383)">
    <g
       id="g1040">
      <path
         sodipodi:nodetypes="cccccccccsscscccccscscsccccccccc"
         inkscape:connector-curvature="0"
         d="m 53.708847,11.53695 c 16.39284,-1.21161 32.57547,-4.39143 48.633213,-7.7831 27.9363,-6.76298 55.30967,-15.47514 83.32075,-21.95357 25.1913,-5.20503 50.89241,-7.74736 76.59829,-7.97161 15.25871,1.82114 29.82881,7.71468 41.02478,18.45649 2.04666,1.96363 3.81678,4.19651 5.72516,6.29477 9.31913,12.75615 13.72764,28.63138 10.74598,44.3663 -0.80616,4.25437 -2.33342,8.33988 -3.50012,12.50982 -2.41769,4.98014 -4.45509,10.16355 -7.25303,14.94042 -7.74972,13.23088 -18.61296,26.86532 -28.18643,38.6093 -13.48893,16.54715 -27.69926,32.86465 -42.35963,48.37392 -8.35181,8.83541 -17.04092,17.3458 -25.56138,26.01869 -35.04668,35.07259 -33.37533,31.22562 -71.1928,63.32913 -21.59617,18.33314 -29.36369,23.84007 -51.529183,40.78907 -24.55132,18.90902 -50.74659,35.4304 -77.120097,51.6243 l -70.031027,50.93204 v 0 c 70.031027,-50.93204 91.025754,-71.82746 116.430204,-91.13805 21.93374,-16.53527 32.00757,-22.54995 53.325173,-40.44928 37.97363,-31.88456 36.34645,-27.97626 71.29355,-63.11327 8.36352,-8.56019 16.90474,-16.95029 25.09055,-25.68057 15.17711,-16.1866 27.18533,-30.2956 40.95305,-47.51895 9.39083,-11.74785 19.08268,-24.08036 26.67574,-37.1596 2.61895,-4.51121 4.56878,-9.37902 6.85316,-14.06853 1.1439,-3.91282 2.61223,-7.74508 3.43167,-11.73847 3.0189,-14.71195 -0.96644,-29.45863 -9.70301,-41.42857 -1.80914,-1.95965 -3.48311,-4.05335 -5.42742,-5.87895 C 261.22872,1.83594 247.19125,-3.37638 232.7177,-4.6672 c -25.31203,0.22306 -50.61594,2.68942 -75.37963,8.05699 -28.18869,6.6541 -55.73498,15.58816 -83.906363,22.30454 -16.73752,3.5517 -33.60486,6.97741 -50.684475,8.33755 z"
         id="path922"
         style="opacity:1;fill:#333333;fill-opacity:1;stroke:#333333;stroke-width:4.16499996;stroke-linecap:round;stroke-linejoin:round;stroke-miterlimit:4;stroke-dasharray:none;stroke-opacity:1" />
      <path
         inkscape:connector-curvature="0"
         d="m 232.77855,17.89036 c -6.87578,15.52818 -14.13311,31.00608 -19.20005,47.25333 -1.54064,4.94011 -2.74729,9.97826 -4.12093,14.96739 -12.27856,53.31461 -15.10422,108.08993 -17.64135,162.54839 -2.0719,59.24814 -2.0046,118.54637 -1.46941,177.82008 0.32551,28.95698 0.76414,57.91426 1.51879,86.86346 0,0 -32.90806,16.7765 -32.90806,16.7765 v 0 c 0.62278,-29.4395 0.94071,-58.88471 1.32387,-88.32808 0.75788,-59.62541 1.36666,-119.25633 3.24127,-178.86042 1.88089,-54.00935 3.90825,-108.26153 13.90235,-161.50982 1.22154,-5.0147 2.26435,-10.07634 3.66461,-15.0441 4.48991,-15.92908 11.33916,-31.07349 17.1724,-46.52335 0,0 34.51651,-15.96338 34.51651,-15.96338 z"
         id="path924"
         style="opacity:1;fill:#333333;fill-opacity:1;stroke:#333333;stroke-width:4.16499996;stroke-linecap:round;stroke-linejoin:round;stroke-miterlimit:4;stroke-dasharray:none;stroke-opacity:1" />
      <path
         inkscape:connector-curvature="0"
         d="m 87.046807,488.02791 c 14.800843,-13.5039 31.697413,-24.47523 48.472533,-35.32354 5.16637,-3.12661 10.27731,-6.34667 15.49911,-9.37977 23.69991,-13.76622 41.19715,-24.8784 64.58267,-35.46295 18.43174,-8.34239 37.40623,-14.81135 56.66575,-20.89716 21.18897,-5.45778 43.01493,-11.62968 65.14867,-10.71716 16.34692,0.67394 19.56631,2.5174 35.87428,6.78751 48.75948,17.87462 92.39607,46.46298 138.04492,70.67547 12.58914,6.6774 25.36777,12.99128 38.05166,19.4869 80.05826,39.9077 165.11521,68.8644 252.17659,89.0718 17.01697,3.9497 34.20505,7.1222 51.30758,10.6832 60.0602,10.8092 121.40935,18.5136 182.48133,12.4353 35.5999,-3.5431 46.7451,-7.581 81.3862,-16.0855 75.7105,-21.824 148.0936,-53.3943 221.0691,-82.7654 26.8793,-11.3706 54.247,-21.55962 81.009,-33.19761 0,0 -28.0112,22.11061 -28.0112,22.11061 v 0 c -25.8878,10.5497 -52.1574,20.1417 -78.021,30.7611 -72.6715,28.7526 -144.6621,59.9152 -219.9531,81.3452 -34.7932,8.329 -45.9185,12.3321 -81.635,15.5473 -60.73988,5.4679 -121.65818,-2.9766 -181.22367,-14.2394 -16.95246,-3.7116 -33.98311,-7.0825 -50.85736,-11.1348 -87.50114,-21.013 -173.19114,-49.6992 -254.6183,-88.1571 -12.96704,-6.3479 -26.03196,-12.4995 -38.90108,-19.0436 C 439.1834,446.92743 394.7036,418.6739 344.77612,402.7354 c -16.89439,-3.74587 -19.29495,-5.23605 -36.01117,-5.49497 -21.73753,-0.33671 -43.10813,5.47727 -63.92216,10.97121 -19.14062,6.14862 -37.95434,12.70167 -56.21101,21.20686 -6.13493,2.85805 -11.59394,7.40523 -18.14176,9.11751 -4.94389,1.29281 17.43366,-10.66096 13.18513,-7.82135 -4.89862,3.27412 -10.09189,6.08431 -15.13783,9.12649 -15.97649,10.29951 -31.95457,20.8145 -46.13724,33.54296 0,0 -35.353273,14.6438 -35.353273,14.6438 z"
         id="path928"
         style="opacity:1;fill:#333333;fill-opacity:1;stroke:#333333;stroke-width:4.16499996;stroke-linecap:round;stroke-linejoin:round;stroke-miterlimit:4;stroke-dasharray:none;stroke-opacity:1" />
      <path
         inkscape:connector-curvature="0"
         d="m 58.811145,367.22858 c 7.043134,-8.57654 15.671725,-15.61687 23.7917,-23.11683 12.779693,-11.69561 26.580655,-22.17436 40.215525,-32.83217 18.53028,-15.26355 37.41224,-30.09844 55.73682,-45.60856 21.97225,-20.0053 46.61981,-36.65534 71.50433,-52.76018 15.74995,-9.82785 31.45006,-19.7542 46.85008,-30.125 13.09341,-8.52216 19.38994,-12.74779 39.05018,-21.8297 0.97477,-0.45029 2.01916,1.0033 2.59355,1.91052 2.98669,4.7175 0.51776,10.7909 -0.70123,15.54246 -9.07851,25.19223 -19.16163,50.0051 -29.36309,74.75997 -10.1247,25.50766 -23.56032,49.46531 -35.85038,73.94318 -0.28815,0.81148 -2.62472,5.3762 -1.70569,7.34214 0.51084,1.0927 1.79864,-1.60875 2.73,-2.37527 1.18298,-0.97359 5.17668,-3.27147 3.8295,-2.5418 -9.21133,4.98896 -18.29048,10.21818 -27.43573,15.32726 9.99839,-7.30946 19.24955,-15.5893 29.30888,-22.81 1.10849,30.0695 31.51036,-31.22406 45.43724,-22.00947 2.98931,1.97784 3.21159,4.3901 4.41547,7.59251 5.44533,27.62639 -3.69885,54.63903 -11.81703,80.72358 -19.2445,57.91547 -48.15806,111.80009 -76.75917,165.47783 -21.74502,42.15315 -44.2783,83.96319 -64.50632,126.87837 0,0 -32.42833,14.70345 -32.42833,14.70345 v 0 c 21.92892,-43.1818 45.59743,-85.48037 67.82855,-128.50818 28.38738,-52.97585 56.86089,-106.33228 74.92605,-163.90897 7.24337,-24.9913 15.67874,-50.78185 9.67148,-76.97947 -0.46064,-1.22115 -0.65122,-3.62174 -2.49717,-3.90416 -2.7024,-0.41347 -5.56511,2.14529 -7.89307,2.94997 9.58294,-5.59742 19.16589,-11.19481 28.74883,-16.7922 -10.48168,6.72123 -19.694,15.2051 -29.55153,22.78142 -12.27581,7.37626 -24.45228,14.92043 -36.82745,22.12879 -3.3758,1.96633 -9.03007,3.88652 -11.00236,-1.23796 -1.3354,-3.46972 0.70072,-6.55894 1.84309,-9.66303 13.17426,-24.49166 27.54532,-48.44968 37.71805,-74.42613 9.72716,-24.21061 19.04526,-48.55894 27.39075,-73.28463 0.47667,-1.88226 0.97708,-3.75866 1.42996,-5.64678 0.29589,-1.2335 0.54629,-2.47747 0.81614,-3.71694 0.0874,-0.40147 0.43897,-0.83816 0.25559,-1.20586 -0.11412,-0.2288 -0.89993,0.4854 -0.67967,0.35554 9.9545,-5.86954 19.92366,-11.71423 29.88332,-17.57506 1.31426,-0.77339 -2.63144,1.54182 -3.94716,2.31273 -15.81889,10.7349 -32.17352,20.68366 -48.37737,30.81939 -24.9909,15.83923 -49.75868,32.3137 -71.67923,52.29791 -17.9734,15.53462 -36.68675,30.18081 -54.90021,45.4333 -13.39185,10.58701 -27.03309,20.86964 -39.75318,32.27824 -7.66634,7.43873 -16.22409,14.00485 -23.071302,22.24886 0,0 -35.228413,15.05093 -35.228413,15.05093 z"
         id="path1034"
         style="opacity:1;fill:#333333;fill-opacity:1;stroke:#333333;stroke-width:4.16499996;stroke-linecap:round;stroke-linejoin:round;stroke-miterlimit:4;stroke-dasharray:none;stroke-opacity:1" />
    </g>
  </g>
</svg>
